<svg width="97" height="96" viewBox="0 0 97 96" fill="none" xmlns="http://www.w3.org/2000/svg">
<circle cx="48.2" cy="48" r="48" fill="#545454"/>
<g clip-path="url(#clip0_4_48)">
<path d="M68.5579 55.5533C70.8107 55.2789 75.7788 54.6884 76.6633 55.8276C77.5473 56.9459 75.6738 61.6512 74.8316 63.7397C74.579 64.3729 75.1264 64.6259 75.6947 64.1408C79.3999 61.018 80.3685 54.4981 79.6107 53.5488C78.8525 52.6208 72.3475 51.8187 68.3894 54.604C67.7788 55.0468 67.8842 55.6378 68.5579 55.5533Z" fill="#FF9900"/>
<path d="M48.1368 66.9679C56.7896 66.9679 66.8526 64.2458 73.7791 59.1189C74.9157 58.275 73.9263 56.9882 72.7683 57.5155C65 60.8068 56.5579 62.4107 48.8737 62.4107C37.4842 62.4107 26.4737 59.267 17.5478 54.0766C16.7683 53.6124 16.1791 54.4141 16.8314 55.005C25.0845 62.4738 36.0105 66.9679 48.1368 66.9679Z" fill="#FF9900"/>
<path d="M34.3895 42.8096C34.3895 43.5904 34.4736 44.2231 34.6208 44.6874C34.808 45.2095 35.0333 45.7172 35.2949 46.2063C35.3999 46.3753 35.4421 46.5442 35.4421 46.6918C35.4421 46.903 35.3158 47.1142 35.0419 47.325L33.7158 48.2112C33.5264 48.3375 33.3365 48.4011 33.1684 48.4011C32.9577 48.4011 32.7473 48.2953 32.537 48.1054C32.2531 47.7999 31.9992 47.4678 31.7788 47.1138C31.5434 46.7084 31.3256 46.293 31.126 45.8688C29.4842 47.8101 27.4208 48.7808 24.9367 48.7808C23.1682 48.7808 21.7581 48.2743 20.7264 47.2619C19.6947 46.249 19.1682 44.8981 19.1682 43.2107C19.1682 41.417 19.7997 39.9612 21.0839 38.8642C22.3682 37.7668 24.0736 37.2186 26.2423 37.2186C26.9579 37.2186 27.6947 37.2817 28.4738 37.3871C29.2525 37.4929 30.0525 37.6614 30.8947 37.8513V36.311C30.8947 34.7076 30.5577 33.5893 29.9049 32.9353C29.2316 32.2812 28.0945 31.965 26.4736 31.965C25.7367 31.965 24.979 32.0491 24.1999 32.2389C23.4259 32.4238 22.6661 32.6636 21.9262 32.9566C21.6868 33.064 21.4407 33.1556 21.1893 33.2309C21.0421 33.2727 20.9367 33.2941 20.8523 33.2941C20.5579 33.2941 20.4102 33.0833 20.4102 32.64V31.6062C20.4102 31.2687 20.4529 31.0153 20.5579 30.8681C20.6628 30.72 20.8523 30.5724 21.1471 30.4243C21.8839 30.0446 22.7684 29.7284 23.7997 29.475C24.8314 29.2011 25.9266 29.0739 27.0842 29.0739C29.5895 29.0739 31.4208 29.6439 32.5997 30.7831C33.7577 31.9223 34.3473 33.6529 34.3473 35.9735V42.8096H34.3895ZM25.8421 46.0169C26.5367 46.0169 27.2527 45.8901 28.0105 45.6371C28.7682 45.3837 29.4419 44.9195 30.0102 44.2867C30.3473 43.8857 30.5999 43.4428 30.7262 42.9363C30.8525 42.4299 30.9365 41.818 30.9365 41.1008V40.2146C30.2982 40.059 29.6516 39.9393 28.9999 39.8562C28.3436 39.7725 27.6826 39.73 27.021 39.7291C25.6105 39.7291 24.5788 40.0034 23.8842 40.573C23.1895 41.143 22.8525 41.9447 22.8525 42.9995C22.8525 43.991 23.1051 44.7296 23.6316 45.2361C24.1367 45.7634 24.8736 46.0169 25.8417 46.0169H25.8421ZM42.7471 48.2953C42.3682 48.2953 42.1156 48.2321 41.9471 48.0845C41.779 47.9578 41.6314 47.6621 41.5051 47.2614L36.5579 30.9521C36.4316 30.5297 36.3684 30.2558 36.3684 30.1082C36.3684 29.7707 36.5365 29.5808 36.8736 29.5808H38.9365C39.3367 29.5808 39.6107 29.6439 39.7579 29.7916C39.9264 29.9183 40.0523 30.214 40.179 30.6146L43.7161 44.582L47.0001 30.6146C47.1051 30.1922 47.2314 29.9183 47.3999 29.7916C47.5684 29.6649 47.8628 29.5808 48.2421 29.5808H49.9262C50.3264 29.5808 50.5999 29.6439 50.7684 29.7916C50.937 29.9183 51.0842 30.214 51.1682 30.6146L54.4945 44.7509L58.137 30.6146C58.2628 30.1922 58.41 29.9183 58.5577 29.7916C58.7262 29.6649 58.9997 29.5808 59.379 29.5808H61.3365C61.6736 29.5808 61.863 29.7493 61.863 30.1082C61.863 30.2135 61.8421 30.3189 61.8208 30.4457C61.7879 30.6256 61.7386 30.8021 61.6736 30.973L56.6001 47.2832C56.4734 47.7052 56.3262 47.9791 56.1577 48.1058C55.9895 48.2325 55.7156 48.317 55.3577 48.317H53.5473C53.1471 48.317 52.8732 48.2534 52.7051 48.1058C52.537 47.9582 52.3893 47.6838 52.3053 47.2619L49.0421 33.6533L45.7999 47.241C45.6945 47.6629 45.5682 47.9373 45.3997 48.0849C45.2316 48.2325 44.9367 48.2957 44.5579 48.2957L42.7471 48.2953ZM69.7999 48.8653C68.7051 48.8653 67.6102 48.7386 66.5577 48.4855C65.5051 48.2321 64.6842 47.9578 64.1367 47.6412C63.7997 47.4513 63.5684 47.2401 63.4839 47.0507C63.402 46.8643 63.3591 46.6633 63.3577 46.4597V45.3837C63.3577 44.9408 63.5262 44.7296 63.8419 44.7296C63.9682 44.7296 64.0945 44.7509 64.2208 44.7927C64.3471 44.8354 64.5365 44.9195 64.7473 45.0039C65.4909 45.3316 66.2672 45.579 67.0632 45.7421C67.9051 45.911 68.7264 45.9955 69.5682 45.9955C70.8947 45.9955 71.9264 45.7634 72.6419 45.2992C73.3579 44.835 73.7367 44.16 73.7367 43.2947C73.7367 42.7042 73.5473 42.2191 73.1684 41.818C72.7895 41.417 72.0736 41.0586 71.0419 40.7211L67.9895 39.7713C66.4527 39.2862 65.3156 38.569 64.621 37.6192C63.9264 36.6908 63.5684 35.657 63.5684 34.56C63.5684 33.6738 63.7579 32.893 64.1367 32.218C64.5156 31.543 65.0208 30.9521 65.6527 30.4879C66.2842 30.0028 66.9997 29.6439 67.8419 29.3909C68.6842 29.1375 69.5682 29.0321 70.4945 29.0321C70.9579 29.0321 71.4421 29.0534 71.9051 29.1166C72.3893 29.1797 72.8314 29.2642 73.2734 29.3487C73.6945 29.4541 74.0947 29.5595 74.4736 29.6858C74.8525 29.8129 75.1473 29.9392 75.3577 30.0659C75.6525 30.2349 75.8633 30.4034 75.9895 30.5933C76.1158 30.7622 76.179 30.9943 76.179 31.2896V32.2816C76.179 32.7249 76.0104 32.957 75.6947 32.957C75.5262 32.957 75.2527 32.8725 74.8947 32.7036C73.6945 32.1553 72.3471 31.881 70.8525 31.881C69.6527 31.881 68.7051 32.0708 68.0527 32.4715C67.3999 32.8725 67.0632 33.4844 67.0632 34.3497C67.0632 34.9402 67.2736 35.4462 67.6947 35.8473C68.1158 36.2483 68.8945 36.6494 70.0102 37.0078L72.9999 37.9575C74.5158 38.4427 75.6102 39.1181 76.263 39.9829C76.9158 40.8478 77.2316 41.8394 77.2316 42.9367C77.2316 43.8438 77.0421 44.6669 76.6842 45.3841C76.3053 46.1013 75.8001 46.7345 75.1473 47.241C74.4945 47.7683 73.7158 48.1481 72.8105 48.4224C71.8633 48.7177 70.8734 48.8653 69.7999 48.8653Z" fill="#252F3E"/>
</g>
<defs>
<clipPath id="clip0_4_48">
<rect width="64" height="64" fill="white" transform="translate(16.2 16)"/>
</clipPath>
</defs>
</svg>
