<svg width="96" height="96" viewBox="0 0 96 96" fill="none" xmlns="http://www.w3.org/2000/svg">
<circle cx="48" cy="48" r="48" fill="#545454"/>
<g clip-path="url(#clip0_4_49)">
<path d="M17.338 51.2302C15.554 49.4462 15.554 46.5539 17.338 44.7699L44.7699 17.338C46.5539 15.554 49.4462 15.554 51.2302 17.338L78.662 44.7699C80.446 46.5539 80.446 49.4462 78.662 51.2302L51.2302 78.662C49.4462 80.446 46.5539 80.446 44.7699 78.662L17.338 51.2302Z" fill="#EE513B"/>
<path d="M37.6909 25L35 27.5543L41.9501 34.1514C41.6689 34.7239 41.512 35.3625 41.512 36.0359C41.512 37.9476 42.7774 39.5787 44.5565 40.2157V56.354C42.7774 56.991 41.512 58.6221 41.512 60.5339C41.512 63.0004 43.6185 65 46.2171 65C48.8157 65 50.9223 63.0004 50.9223 60.5339C50.9223 58.8008 49.8823 57.2981 48.3622 56.5578V40.2378L55.0059 46.544C54.7385 47.1049 54.5897 47.7277 54.5897 48.3834C54.5897 50.85 56.6963 52.8496 59.2948 52.8496C61.8934 52.8496 64 50.85 64 48.3834C64 45.9169 61.8934 43.9173 59.2948 43.9173C58.7898 43.9173 58.3035 43.9927 57.8474 44.1325L50.7122 37.3597C50.8488 36.9415 50.9223 36.4968 50.9223 36.0359C50.9223 33.5692 48.8157 31.5697 46.2171 31.5697C45.7315 31.5697 45.2632 31.6395 44.8224 31.7692L37.6909 25Z" fill="white"/>
</g>
<defs>
<clipPath id="clip0_4_49">
<rect width="64" height="64" fill="white" transform="translate(16 16)"/>
</clipPath>
</defs>
</svg>
