<svg width="97" height="96" viewBox="0 0 97 96" fill="none" xmlns="http://www.w3.org/2000/svg">
<circle cx="48.6" cy="48" r="48" fill="#545454"/>
<g clip-path="url(#clip0_4_47)">
<path d="M71 16H26.2C20.898 16 16.6 20.2981 16.6 25.6V70.4C16.6 75.7019 20.898 80 26.2 80H71C76.3019 80 80.6 75.7019 80.6 70.4V25.6C80.6 20.2981 76.3019 16 71 16Z" fill="#F7DF1E"/>
<path d="M57.1 62.25C58.35 64.375 60.1 65.875 62.975 65.875C65.475 65.875 67.1 64.625 67.1 62.875C67.1 60.875 65.475 60.125 62.725 58.875L61.225 58.25C56.85 56.375 53.975 54.125 53.975 49.25C53.975 44.75 57.35 41.25 62.725 41.25C66.6 41.25 69.35 42.625 71.225 46.125L66.6 49.125C65.6 47.25 64.475 46.5 62.725 46.5C60.975 46.5 59.85 47.625 59.85 49.125C59.85 50.875 60.975 51.625 63.6 52.75L65.1 53.375C70.225 55.625 73.1 57.75 73.1 62.875C73.1 68.25 68.85 71.25 63.1 71.25C57.475 71.25 53.85 68.625 52.1 65.125L57.1 62.25ZM35.85 62.75C36.85 64.375 37.6 65.875 39.725 65.875C41.725 65.875 42.975 65.125 42.975 62.125V41.375H48.975V61.875C48.975 68.125 45.35 70.875 39.975 70.875C35.1 70.875 32.35 68.375 30.975 65.375L35.85 62.75Z" fill="black"/>
</g>
<defs>
<clipPath id="clip0_4_47">
<rect width="64" height="64" fill="white" transform="translate(16.6 16)"/>
</clipPath>
</defs>
</svg>
