<svg width="96" height="96" viewBox="0 0 96 96" fill="none" xmlns="http://www.w3.org/2000/svg">
<path d="M96 48C96 74.5097 74.5097 96 48 96C21.4903 96 0 74.5097 0 48C0 21.4903 21.4903 0 48 0C74.5097 0 96 21.4903 96 48Z" fill="#545454"/>
<path d="M53.3578 47.9518C53.3578 45.083 50.9592 42.757 48 42.757C45.0412 42.757 42.6422 45.083 42.6422 47.9518C42.6422 50.821 45.0412 53.1468 48 53.1468C50.9592 53.1468 53.3578 50.821 53.3578 47.9518Z" fill="#53C1DE"/>
<path fill-rule="evenodd" clip-rule="evenodd" d="M65.4008 38.3074C66.5322 33.8496 67.9544 25.583 62.9408 22.7803C57.9506 19.9899 51.4568 25.3369 48.0278 28.5464C44.6088 25.3688 37.9326 20.0447 32.9233 22.8563C27.935 25.6561 29.4733 33.7856 30.6298 38.2714C25.9766 39.5528 18 42.3128 18 47.9518C18 53.5748 25.9683 56.5776 30.594 57.8578C29.4332 62.3684 27.9719 70.3818 32.9665 73.1754C37.9946 75.9864 44.65 70.789 48.1108 67.5444C51.5618 70.7728 57.9932 76.0042 62.9844 73.2028C67.9912 70.3926 66.6872 62.2368 65.5306 57.725C70.0146 56.442 78 53.5046 78 47.9518C78 42.367 69.9806 39.5846 65.4008 38.3074ZM64.8324 55.334C64.073 53.0032 63.048 50.5246 61.7942 47.9642C62.991 45.4642 63.9762 43.0176 64.7144 40.7018C68.0718 41.6456 75.437 43.8026 75.437 47.9518C75.437 52.14 68.3692 54.3174 64.8324 55.334ZM61.7 71.052C57.976 73.142 52.4442 68.1392 49.8956 65.7618C51.5864 63.9688 53.276 61.8844 54.925 59.5698C57.8258 59.3204 60.566 58.9124 63.0512 58.3554C63.8652 61.5468 65.4404 68.9526 61.7 71.052ZM34.2472 71.0222C30.5229 68.94 32.2252 61.7892 33.0791 58.4666C35.5367 58.9938 38.2572 59.373 41.1648 59.6016C42.8246 61.8664 44.5632 63.9482 46.3152 65.7714C44.1506 67.8016 37.989 73.114 34.2472 71.0222ZM20.563 47.9518C20.563 43.748 27.8841 41.6066 31.3181 40.6652C32.069 43.033 33.0539 45.5088 34.2425 48.0124C33.0385 50.5532 32.0395 53.0682 31.2817 55.464C28.0074 54.5552 20.563 52.1582 20.563 47.9518ZM34.2074 25.0071C37.947 22.9083 43.7494 28.0197 46.2318 30.3203C44.4888 32.1351 42.7662 34.2012 41.1206 36.453C38.2988 36.7066 35.5975 37.1138 33.1142 37.6594C32.1825 34.0414 30.4718 27.1036 34.2074 25.0071ZM56.7586 39.1542C58.673 39.3884 60.5072 39.7 62.2294 40.0812C61.7124 41.688 61.068 43.3682 60.309 45.0906C59.2088 43.0666 58.0278 41.0832 56.7586 39.1542ZM48.0286 32.0962C49.2108 33.3379 50.3948 34.7246 51.5596 36.229C49.197 36.1206 46.8306 36.1202 44.468 36.2274C45.6338 34.737 46.828 33.3524 48.0286 32.0962ZM35.713 45.0888C34.9666 43.3724 34.328 41.6848 33.8064 40.055C35.5184 39.6836 37.344 39.38 39.246 39.1496C37.9732 41.0744 36.7942 43.057 35.713 45.0888ZM39.3006 56.9314C37.3358 56.7188 35.4825 56.4306 33.7711 56.0694C34.3009 54.411 34.9536 52.687 35.7159 50.9336C36.812 52.9866 38.009 54.9884 39.3006 56.9314ZM48.0996 63.983C46.8848 62.712 45.673 61.3062 44.4896 59.7942C46.8656 59.8846 49.2462 59.8848 51.622 59.782C50.4536 61.3216 49.2738 62.7294 48.0996 63.983ZM60.3334 50.8444C61.1354 52.6168 61.8114 54.3314 62.3484 55.9618C60.6086 56.3468 58.7304 56.6568 56.7514 56.887C58.03 54.9214 59.2298 52.9072 60.3334 50.8444ZM53.4946 57.1882C49.8602 57.44 46.2032 57.4372 42.5676 57.2088C40.5018 54.283 38.6628 51.206 37.0754 48.0116C38.6552 44.8238 40.4808 41.7528 42.5368 38.8316C46.175 38.565 49.8356 38.5642 53.4738 38.8332C55.5122 41.7542 57.335 44.8172 58.9514 47.9762C57.3542 51.1624 55.519 54.2396 53.4946 57.1882ZM61.6606 24.9332C65.4012 27.0251 63.7362 34.4545 62.919 37.6852C60.4298 37.1282 57.7266 36.7138 54.8966 36.4562C53.2478 34.1801 51.5396 32.1104 49.8248 30.319C52.339 27.9688 57.9562 22.8618 61.6606 24.9332Z" fill="#53C1DE"/>
</svg>
