<svg width="97" height="96" viewBox="0 0 97 96" fill="none" xmlns="http://www.w3.org/2000/svg">
<circle cx="48.4" cy="48" r="48" fill="#545454"/>
<path d="M34.4 43.4C36.2667 35.9333 40.9334 32.2 48.4 32.2C59.6 32.2 61 40.6 66.6 42C70.3334 42.9333 73.6 41.5333 76.4 37.8C74.5334 45.2667 69.8667 49 62.4 49C51.2 49 49.8 40.6 44.2 39.2C40.4667 38.2667 37.2 39.6667 34.4 43.4ZM20.4 60.2C22.2667 52.7333 26.9334 49 34.4 49C45.6 49 47 57.4 52.6 58.8C56.3334 59.7333 59.6 58.3333 62.4 54.6C60.5334 62.0667 55.8667 65.8 48.4 65.8C37.2 65.8 35.8 57.4 30.2 56C26.4667 55.0667 23.2 56.4667 20.4 60.2Z" fill="#44A8B3"/>
</svg>
