<svg width="97" height="96" viewBox="0 0 97 96" fill="none" xmlns="http://www.w3.org/2000/svg">
<circle cx="48.8" cy="48" r="48" fill="#545454"/>
<g clip-path="url(#clip0_4_46)">
<path d="M71.2001 16H26.4C21.0981 16 16.8 20.2981 16.8 25.6V70.4C16.8 75.7019 21.0981 80 26.4 80H71.2001C76.502 80 80.8 75.7019 80.8 70.4V25.6C80.8 20.2981 76.502 16 71.2001 16Z" fill="#3178C6"/>
<path d="M45.925 51.5H53.925V46.375H31.55V51.5H39.55V74.375H45.925V51.5ZM56.425 73.125C57.4375 73.65 58.675 74.0375 60.05 74.3C61.425 74.5625 62.925 74.6875 64.425 74.6875C65.925 74.6875 67.3 74.55 68.675 74.2625C70.05 73.975 71.175 73.5 72.175 72.8875C73.1875 72.225 74.05 71.3875 74.55 70.2625C75.05 69.1375 75.4375 67.8875 75.4375 66.2625C75.4375 65.125 75.2625 64.1375 74.925 63.2625C74.5875 62.3875 74.1 61.6375 73.425 61.0125C72.7875 60.35 72.05 59.7625 71.175 59.2625C70.3 58.7625 69.3 58.2375 68.175 57.7625C67.35 57.425 66.675 57.1 65.925 56.775C65.275 56.45 64.7125 56.125 64.3 55.8C63.8375 55.4625 63.4875 55.1125 63.2375 54.75C62.9875 54.375 62.8625 53.9625 62.8625 53.5C62.8625 53.075 62.9738 52.6875 63.2001 52.3375C63.4263 51.9875 63.7376 51.7 64.1376 51.45C64.5376 51.2 65.0376 51.0125 65.6376 50.875C66.2251 50.7375 66.8751 50.675 67.6376 50.675C68.1626 50.675 68.7126 50.7137 69.2626 50.7925C69.8376 50.8712 70.4251 50.9925 71.0126 51.155C71.6001 51.3175 72.1751 51.5175 72.7626 51.7675C73.3126 52.0175 73.8251 52.305 74.2626 52.63V46.755C73.3126 46.3925 72.2626 46.1175 71.1376 45.9425C70.0126 45.7675 68.7626 45.68 67.2626 45.68C65.7626 45.68 64.3876 45.8425 63.0126 46.155C61.6376 46.4675 60.5126 46.9675 59.5126 47.655C58.5001 48.33 57.7626 49.155 57.1376 50.28C56.5501 51.33 56.2626 52.53 56.2626 54.03C56.2626 55.905 56.8001 57.53 57.8876 58.78C58.9626 60.155 60.6376 61.155 62.7626 62.155C63.6251 62.505 64.3876 62.855 65.1376 63.1925C65.8876 63.53 66.5126 63.88 67.0126 64.2425C67.5501 64.605 67.9751 65.005 68.2626 65.43C68.5751 65.855 68.7375 66.355 68.7375 66.93C68.7375 67.33 68.6401 67.705 68.4501 68.055C68.2601 68.405 67.9625 68.705 67.5625 68.955C67.1625 69.205 66.675 69.405 66.0625 69.555C65.475 69.6925 64.8125 69.7675 63.9375 69.7675C62.5625 69.7675 61.1875 69.53 59.9375 69.055C58.5625 68.58 57.3125 67.8675 56.425 67.125V73.125Z" fill="white"/>
</g>
<defs>
<clipPath id="clip0_4_46">
<rect width="64" height="64" fill="white" transform="translate(16.8 16)"/>
</clipPath>
</defs>
</svg>
